<svg width="103" height="12" viewBox="0 0 103 12" fill="none" xmlns="http://www.w3.org/2000/svg">
<path d="M4.33008 9.12305C3.47461 9.12305 2.75977 8.93555 2.18555 8.56055C1.61523 8.18555 1.18555 7.67188 0.896484 7.01953C0.611328 6.36719 0.46875 5.62695 0.46875 4.79883V4.67578C0.46875 3.83984 0.619141 3.09766 0.919922 2.44922C1.2207 1.79688 1.65234 1.2832 2.21484 0.908203C2.77734 0.533203 3.44922 0.345703 4.23047 0.345703C4.78125 0.345703 5.28516 0.431641 5.74219 0.603516C6.19922 0.775391 6.57812 0.994141 6.87891 1.25977V3.09961H5.95898L5.83594 1.75195C5.71094 1.6543 5.56641 1.57227 5.40234 1.50586C5.24219 1.43945 5.0625 1.38867 4.86328 1.35352C4.66797 1.31836 4.45508 1.30078 4.22461 1.30078C3.66602 1.30078 3.19336 1.44531 2.80664 1.73438C2.41992 2.01953 2.12695 2.41406 1.92773 2.91797C1.72852 3.42188 1.62891 4.00391 1.62891 4.66406V4.79883C1.62891 5.51367 1.73438 6.125 1.94531 6.63281C2.16016 7.13672 2.4707 7.52148 2.87695 7.78711C3.28711 8.05273 3.78516 8.18555 4.37109 8.18555C4.64453 8.18555 4.91211 8.15234 5.17383 8.08594C5.43555 8.01953 5.65234 7.93359 5.82422 7.82812L5.95312 6.63867H6.85547V8.49023C6.53516 8.68945 6.15234 8.8457 5.70703 8.95898C5.26172 9.06836 4.80273 9.12305 4.33008 9.12305ZM10.8574 9.12305C10.2715 9.12305 9.76562 8.98633 9.33984 8.71289C8.91797 8.43555 8.5918 8.05469 8.36133 7.57031C8.13086 7.08203 8.01562 6.52539 8.01562 5.90039V5.77148C8.01562 5.14648 8.13086 4.5918 8.36133 4.10742C8.5918 3.61914 8.91797 3.23633 9.33984 2.95898C9.76562 2.68164 10.2676 2.54297 10.8457 2.54297C11.4316 2.54297 11.9355 2.68164 12.3574 2.95898C12.7832 3.23633 13.1113 3.61719 13.3418 4.10156C13.5723 4.58594 13.6875 5.14258 13.6875 5.77148V5.90039C13.6875 6.5293 13.5723 7.08789 13.3418 7.57617C13.1113 8.06055 12.7852 8.43945 12.3633 8.71289C11.9414 8.98633 11.4395 9.12305 10.8574 9.12305ZM10.8574 8.2207C11.2246 8.2207 11.5312 8.12109 11.7773 7.92188C12.0273 7.71875 12.2148 7.44336 12.3398 7.0957C12.4688 6.74414 12.5332 6.3457 12.5332 5.90039V5.77148C12.5332 5.32617 12.4688 4.92969 12.3398 4.58203C12.2148 4.23047 12.0273 3.95508 11.7773 3.75586C11.5273 3.55273 11.2168 3.45117 10.8457 3.45117C10.4785 3.45117 10.1699 3.55273 9.91992 3.75586C9.66992 3.95508 9.48242 4.23047 9.35742 4.58203C9.23242 4.92969 9.16992 5.32617 9.16992 5.77148V5.90039C9.16992 6.3457 9.23242 6.74414 9.35742 7.0957C9.48242 7.44336 9.66992 7.71875 9.91992 7.92188C10.1738 8.12109 10.4863 8.2207 10.8574 8.2207ZM14.5781 9V8.26172L15.5332 8.09766V3.56836L14.5781 3.4043V2.66016H16.5645L16.6465 3.60352C16.8574 3.26758 17.1211 3.00781 17.4375 2.82422C17.7578 2.63672 18.1211 2.54297 18.5273 2.54297C19.2109 2.54297 19.7402 2.74414 20.1152 3.14648C20.4902 3.54492 20.6777 4.16211 20.6777 4.99805V8.09766L21.6328 8.26172V9H18.5684V8.26172L19.5234 8.09766V5.02148C19.5234 4.46289 19.4121 4.06641 19.1895 3.83203C18.9707 3.59766 18.6348 3.48047 18.1816 3.48047C17.8496 3.48047 17.5547 3.56055 17.2969 3.7207C17.043 3.88086 16.8398 4.09961 16.6875 4.37695V8.09766L17.6426 8.26172V9H14.5781ZM24.457 9.09961C23.9883 9.09961 23.6152 8.96289 23.3379 8.68945C23.0645 8.41211 22.9277 7.9707 22.9277 7.36523V3.51562H21.9258V2.66016H22.9277V1.13086H24.082V2.66016H25.459V3.51562H24.082V7.36523C24.082 7.66992 24.1426 7.89453 24.2637 8.03906C24.3848 8.18359 24.5469 8.25586 24.75 8.25586C24.8867 8.25586 25.0391 8.24414 25.207 8.2207C25.375 8.19336 25.5059 8.16992 25.5996 8.15039L25.7578 8.90625C25.5898 8.95703 25.3828 9.00195 25.1367 9.04102C24.8945 9.08008 24.668 9.09961 24.457 9.09961ZM28.5469 9.12305C27.8867 9.12305 27.3848 8.96289 27.041 8.64258C26.6973 8.31836 26.5254 7.86328 26.5254 7.27734C26.5254 6.67578 26.7715 6.19336 27.2637 5.83008C27.7559 5.46289 28.4395 5.2793 29.3145 5.2793H30.4453V4.6582C30.4453 4.27539 30.3281 3.97852 30.0938 3.76758C29.8633 3.55664 29.5371 3.45117 29.1152 3.45117C28.8496 3.45117 28.6191 3.48438 28.4238 3.55078C28.2285 3.61328 28.0508 3.70117 27.8906 3.81445L27.7676 4.69922H26.877V3.24609C27.1621 3.01562 27.4941 2.8418 27.873 2.72461C28.252 2.60352 28.6719 2.54297 29.1328 2.54297C29.9023 2.54297 30.5059 2.72656 30.9434 3.09375C31.3809 3.46094 31.5996 3.98633 31.5996 4.66992V7.72266C31.5996 7.80469 31.5996 7.88477 31.5996 7.96289C31.6035 8.04102 31.6094 8.11914 31.6172 8.19727L32.2324 8.26172V9H30.5742C30.5391 8.82812 30.5117 8.67383 30.4922 8.53711C30.4727 8.40039 30.459 8.26367 30.4512 8.12695C30.2285 8.41211 29.9492 8.65039 29.6133 8.8418C29.2812 9.0293 28.9258 9.12305 28.5469 9.12305ZM28.7168 8.15625C29.0996 8.15625 29.4492 8.06445 29.7656 7.88086C30.082 7.69727 30.3086 7.47656 30.4453 7.21875V6.07031H29.2734C28.7422 6.07031 28.3438 6.19727 28.0781 6.45117C27.8125 6.70508 27.6797 6.98828 27.6797 7.30078C27.6797 7.57812 27.7656 7.79102 27.9375 7.93945C28.1094 8.08398 28.3691 8.15625 28.7168 8.15625ZM35.9941 9.12305C35.4199 9.12305 34.9199 8.99023 34.4941 8.72461C34.0684 8.45508 33.7383 8.08203 33.5039 7.60547C33.2695 7.12891 33.1523 6.57812 33.1523 5.95312V5.70703C33.1523 5.10547 33.2656 4.56641 33.4922 4.08984C33.7188 3.61328 34.0449 3.23633 34.4707 2.95898C34.8965 2.68164 35.4043 2.54297 35.9941 2.54297C36.5059 2.54297 36.9531 2.62695 37.3359 2.79492C37.7227 2.96289 38.0469 3.19336 38.3086 3.48633L38.3379 5.00977H37.4355L37.2363 3.90234C37.1035 3.76562 36.9375 3.65625 36.7383 3.57422C36.5391 3.49219 36.3047 3.45117 36.0352 3.45117C35.6914 3.45117 35.3887 3.55273 35.127 3.75586C34.8691 3.95898 34.668 4.23047 34.5234 4.57031C34.3789 4.91016 34.3066 5.28906 34.3066 5.70703V5.95312C34.3066 6.41406 34.373 6.81445 34.5059 7.1543C34.6426 7.49414 34.8359 7.75781 35.0859 7.94531C35.3398 8.12891 35.6406 8.2207 35.9883 8.2207C36.3789 8.2207 36.7031 8.11328 36.9609 7.89844C37.2188 7.68359 37.377 7.38867 37.4355 7.01367H38.4727L38.4844 7.04883C38.4648 7.41211 38.3574 7.75195 38.1621 8.06836C37.9668 8.38477 37.6875 8.64062 37.3242 8.83594C36.9648 9.02734 36.5215 9.12305 35.9941 9.12305ZM41.625 9.09961C41.1562 9.09961 40.7832 8.96289 40.5059 8.68945C40.2324 8.41211 40.0957 7.9707 40.0957 7.36523V3.51562H39.0938V2.66016H40.0957V1.13086H41.25V2.66016H42.627V3.51562H41.25V7.36523C41.25 7.66992 41.3105 7.89453 41.4316 8.03906C41.5527 8.18359 41.7148 8.25586 41.918 8.25586C42.0547 8.25586 42.207 8.24414 42.375 8.2207C42.543 8.19336 42.6738 8.16992 42.7676 8.15039L42.9258 8.90625C42.7578 8.95703 42.5508 9.00195 42.3047 9.04102C42.0625 9.08008 41.8359 9.09961 41.625 9.09961ZM46.2305 9.12305C45.8047 9.12305 45.4062 9.08008 45.0352 8.99414C44.6641 8.9082 44.2695 8.77539 43.8516 8.5957L43.8398 7.08984H44.7129L44.9297 7.99805C45.1484 8.08789 45.3594 8.1543 45.5625 8.19727C45.7695 8.23633 45.9922 8.25586 46.2305 8.25586C46.6992 8.25586 47.0352 8.16602 47.2383 7.98633C47.4414 7.80664 47.543 7.58398 47.543 7.31836C47.543 7.06836 47.4395 6.85742 47.2324 6.68555C47.0293 6.50977 46.6582 6.36133 46.1191 6.24023C45.3535 6.06445 44.7891 5.83008 44.4258 5.53711C44.0664 5.24023 43.8867 4.8457 43.8867 4.35352C43.8867 4.00977 43.9863 3.70312 44.1855 3.43359C44.3848 3.16016 44.6621 2.94336 45.0176 2.7832C45.373 2.62305 45.7871 2.54297 46.2598 2.54297C46.7402 2.54297 47.1504 2.59766 47.4902 2.70703C47.834 2.81641 48.1328 2.96289 48.3867 3.14648L48.4453 4.59375H47.5781L47.3906 3.75C47.2539 3.64844 47.0918 3.57031 46.9043 3.51562C46.7168 3.46094 46.502 3.43359 46.2598 3.43359C45.9004 3.43359 45.6074 3.51758 45.3809 3.68555C45.1582 3.85352 45.0469 4.06445 45.0469 4.31836C45.0469 4.4668 45.0781 4.5957 45.1406 4.70508C45.207 4.81445 45.332 4.91406 45.5156 5.00391C45.6992 5.08984 45.9688 5.17578 46.3242 5.26172C47.207 5.46875 47.8223 5.73242 48.1699 6.05273C48.5215 6.37305 48.6973 6.76758 48.6973 7.23633C48.6973 7.77148 48.498 8.2207 48.0996 8.58398C47.7051 8.94336 47.082 9.12305 46.2305 9.12305ZM52.7578 9V8.26172L53.7129 8.09766V1.37695L52.7578 1.21289V0.46875H53.7129H55.2539L58.002 6.94336H58.0371L60.6973 0.46875H63.2695V1.21289L62.3145 1.37695V8.09766L63.2695 8.26172V9H60.2051V8.26172L61.2129 8.09766V5.625V2.04492L61.1836 2.03906L58.4121 8.69531H57.6445L54.7793 2.05078L54.75 2.05664L54.791 5.625V8.09766L55.8223 8.26172V9H52.7578ZM66.3047 9.12305C65.6445 9.12305 65.1426 8.96289 64.7988 8.64258C64.4551 8.31836 64.2832 7.86328 64.2832 7.27734C64.2832 6.67578 64.5293 6.19336 65.0215 5.83008C65.5137 5.46289 66.1973 5.2793 67.0723 5.2793H68.2031V4.6582C68.2031 4.27539 68.0859 3.97852 67.8516 3.76758C67.6211 3.55664 67.2949 3.45117 66.873 3.45117C66.6074 3.45117 66.377 3.48438 66.1816 3.55078C65.9863 3.61328 65.8086 3.70117 65.6484 3.81445L65.5254 4.69922H64.6348V3.24609C64.9199 3.01562 65.252 2.8418 65.6309 2.72461C66.0098 2.60352 66.4297 2.54297 66.8906 2.54297C67.6602 2.54297 68.2637 2.72656 68.7012 3.09375C69.1387 3.46094 69.3574 3.98633 69.3574 4.66992V7.72266C69.3574 7.80469 69.3574 7.88477 69.3574 7.96289C69.3613 8.04102 69.3672 8.11914 69.375 8.19727L69.9902 8.26172V9H68.332C68.2969 8.82812 68.2695 8.67383 68.25 8.53711C68.2305 8.40039 68.2168 8.26367 68.209 8.12695C67.9863 8.41211 67.707 8.65039 67.3711 8.8418C67.0391 9.0293 66.6836 9.12305 66.3047 9.12305ZM66.4746 8.15625C66.8574 8.15625 67.207 8.06445 67.5234 7.88086C67.8398 7.69727 68.0664 7.47656 68.2031 7.21875V6.07031H67.0312C66.5 6.07031 66.1016 6.19727 65.8359 6.45117C65.5703 6.70508 65.4375 6.98828 65.4375 7.30078C65.4375 7.57812 65.5234 7.79102 65.6953 7.93945C65.8672 8.08398 66.127 8.15625 66.4746 8.15625ZM70.8867 9V8.26172L71.8418 8.09766V3.56836L70.8867 3.4043V2.66016H72.873L72.9551 3.60352C73.166 3.26758 73.4297 3.00781 73.7461 2.82422C74.0664 2.63672 74.4297 2.54297 74.8359 2.54297C75.5195 2.54297 76.0488 2.74414 76.4238 3.14648C76.7988 3.54492 76.9863 4.16211 76.9863 4.99805V8.09766L77.9414 8.26172V9H74.877V8.26172L75.832 8.09766V5.02148C75.832 4.46289 75.7207 4.06641 75.498 3.83203C75.2793 3.59766 74.9434 3.48047 74.4902 3.48047C74.1582 3.48047 73.8633 3.56055 73.6055 3.7207C73.3516 3.88086 73.1484 4.09961 72.9961 4.37695V8.09766L73.9512 8.26172V9H70.8867ZM80.8125 9.12305C80.1523 9.12305 79.6504 8.96289 79.3066 8.64258C78.9629 8.31836 78.791 7.86328 78.791 7.27734C78.791 6.67578 79.0371 6.19336 79.5293 5.83008C80.0215 5.46289 80.7051 5.2793 81.5801 5.2793H82.7109V4.6582C82.7109 4.27539 82.5938 3.97852 82.3594 3.76758C82.1289 3.55664 81.8027 3.45117 81.3809 3.45117C81.1152 3.45117 80.8848 3.48438 80.6895 3.55078C80.4941 3.61328 80.3164 3.70117 80.1562 3.81445L80.0332 4.69922H79.1426V3.24609C79.4277 3.01562 79.7598 2.8418 80.1387 2.72461C80.5176 2.60352 80.9375 2.54297 81.3984 2.54297C82.168 2.54297 82.7715 2.72656 83.209 3.09375C83.6465 3.46094 83.8652 3.98633 83.8652 4.66992V7.72266C83.8652 7.80469 83.8652 7.88477 83.8652 7.96289C83.8691 8.04102 83.875 8.11914 83.8828 8.19727L84.498 8.26172V9H82.8398C82.8047 8.82812 82.7773 8.67383 82.7578 8.53711C82.7383 8.40039 82.7246 8.26367 82.7168 8.12695C82.4941 8.41211 82.2148 8.65039 81.8789 8.8418C81.5469 9.0293 81.1914 9.12305 80.8125 9.12305ZM80.9824 8.15625C81.3652 8.15625 81.7148 8.06445 82.0312 7.88086C82.3477 7.69727 82.5742 7.47656 82.7109 7.21875V6.07031H81.5391C81.0078 6.07031 80.6094 6.19727 80.3438 6.45117C80.0781 6.70508 79.9453 6.98828 79.9453 7.30078C79.9453 7.57812 80.0312 7.79102 80.2031 7.93945C80.375 8.08398 80.6348 8.15625 80.9824 8.15625ZM88.1777 11.5605C87.873 11.5605 87.543 11.5176 87.1875 11.4316C86.832 11.3496 86.5195 11.2363 86.25 11.0918L86.5488 10.1953C86.7637 10.3086 87.0176 10.4023 87.3105 10.4766C87.6035 10.5508 87.8887 10.5879 88.166 10.5879C88.6816 10.5879 89.0586 10.4434 89.2969 10.1543C89.5391 9.86523 89.6602 9.45312 89.6602 8.91797V8.31445C89.4531 8.58008 89.2051 8.78125 88.916 8.91797C88.627 9.05469 88.2949 9.12305 87.9199 9.12305C87.4043 9.12305 86.959 8.99609 86.584 8.74219C86.209 8.48438 85.9199 8.12695 85.7168 7.66992C85.5176 7.20898 85.418 6.67578 85.418 6.07031V5.94727C85.418 5.26758 85.5176 4.67188 85.7168 4.16016C85.9199 3.64844 86.209 3.25195 86.584 2.9707C86.959 2.68555 87.4082 2.54297 87.9316 2.54297C88.3301 2.54297 88.6797 2.62109 88.9805 2.77734C89.2812 2.93359 89.5332 3.16016 89.7363 3.45703L89.8418 2.66016H90.8145V8.91797C90.8145 9.46484 90.7109 9.93555 90.5039 10.3301C90.3008 10.7246 90.002 11.0273 89.6074 11.2383C89.2168 11.4531 88.7402 11.5605 88.1777 11.5605ZM88.207 8.18555C88.5547 8.18555 88.8457 8.10742 89.0801 7.95117C89.3145 7.79102 89.5078 7.56641 89.6602 7.27734V4.35938C89.5117 4.08984 89.3184 3.87695 89.0801 3.7207C88.8418 3.56055 88.5547 3.48047 88.2188 3.48047C87.8516 3.48047 87.5449 3.58594 87.2988 3.79688C87.0566 4.00781 86.875 4.29883 86.7539 4.66992C86.6328 5.03711 86.5723 5.46289 86.5723 5.94727V6.07031C86.5723 6.70703 86.707 7.21875 86.9766 7.60547C87.2461 7.99219 87.6562 8.18555 88.207 8.18555ZM90.6387 3.60352L90.1875 2.66016H91.5996V3.39844L90.6387 3.60352ZM95.0332 9.12305C94.4473 9.12305 93.9375 8.99023 93.5039 8.72461C93.0703 8.45508 92.7344 8.08203 92.4961 7.60547C92.2617 7.12891 92.1445 6.57812 92.1445 5.95312V5.69531C92.1445 5.09375 92.2676 4.55664 92.5137 4.08398C92.7637 3.60742 93.0938 3.23242 93.5039 2.95898C93.918 2.68164 94.3691 2.54297 94.8574 2.54297C95.4277 2.54297 95.9043 2.66016 96.2871 2.89453C96.6738 3.12891 96.9648 3.45898 97.1602 3.88477C97.3555 4.30664 97.4531 4.80469 97.4531 5.37891V6.09961H93.3398L93.3223 6.12891C93.3301 6.53516 93.4004 6.89648 93.5332 7.21289C93.6699 7.52539 93.8652 7.77148 94.1191 7.95117C94.373 8.13086 94.6777 8.2207 95.0332 8.2207C95.4238 8.2207 95.7656 8.16602 96.0586 8.05664C96.3555 7.94336 96.6113 7.78906 96.8262 7.59375L97.2773 8.34375C97.0508 8.5625 96.75 8.74805 96.375 8.90039C96.0039 9.04883 95.5566 9.12305 95.0332 9.12305ZM93.375 5.19727H96.2988V5.04492C96.2988 4.74023 96.2441 4.46875 96.1348 4.23047C96.0293 3.98828 95.8691 3.79883 95.6543 3.66211C95.4434 3.52148 95.1777 3.45117 94.8574 3.45117C94.5996 3.45117 94.3652 3.52734 94.1543 3.67969C93.9434 3.82812 93.7695 4.03125 93.6328 4.28906C93.4961 4.54688 93.4062 4.83984 93.3633 5.16797L93.375 5.19727ZM98.3438 9V8.26172L99.2988 8.09766V3.56836L98.3438 3.4043V2.66016H100.33L100.43 3.46875L100.441 3.58008C100.621 3.25586 100.842 3.00195 101.104 2.81836C101.369 2.63477 101.672 2.54297 102.012 2.54297C102.133 2.54297 102.256 2.55469 102.381 2.57812C102.51 2.59766 102.602 2.61719 102.656 2.63672L102.504 3.70898L101.701 3.66211C101.396 3.64258 101.141 3.71289 100.934 3.87305C100.727 4.0293 100.566 4.24023 100.453 4.50586V8.09766L101.408 8.26172V9H98.3438Z" fill="black"/>
</svg>
