<?xml version="1.0" encoding="iso-8859-1"?>
<!-- Generator: Adobe Illustrator 24.1.2, SVG Export Plug-In . SVG Version: 6.00 Build 0)  -->
<svg version="1.1" baseProfile="basic" id="Layer_1"
	 xmlns="http://www.w3.org/2000/svg" xmlns:xlink="http://www.w3.org/1999/xlink" x="0px" y="0px" viewBox="0 0 50 50"
	 xml:space="preserve">
<polygon style="fill:#577BE6;" points="21,41.166 3,30.776 3,23.853 29,8.834 47,19.224 47,26.155 "/>
<polygon style="fill:#4460B3;" points="21,41.167 21,34.24 47,19.224 47,26.155 "/>
<polygon style="fill:#6189FF;" points="21,41.167 3,30.775 3,23.848 21,34.24 "/>
<polygon style="fill:#4460B3;" points="30,24.424 22,19.805 19,21.537 27,26.156 "/>
<polygon style="fill:#4460B3;" points="32.002,18.65 30.001,18.171 28.001,18.65 27.172,19.804 28.001,20.959 30.001,21.438 
	32.002,20.959 32.83,19.804 "/>
<polygon style="fill:#479DB3;" points="21,36.55 21,38.858 31,33.084 31,30.775 "/>
<polygon style="fill:#E64E4E;" points="47,23.847 43,26.156 43,23.847 47,21.537 "/>
<polygon style="fill:#E6903A;" points="43,26.156 39,28.466 39,26.156 43,23.847 "/>
<polygon style="fill:#57E66E;" points="39,28.466 35,30.775 35,28.466 39,26.156 "/>
<polygon style="fill:#E6E04E;" points="35,30.775 31,33.084 31,30.775 35,28.466 "/>
<polygon style="fill:#66E1FF;" points="5,27.312 5,29.62 21,38.858 21,36.55 "/>
</svg>